<svg 
 xmlns="http://www.w3.org/2000/svg"
 xmlns:xlink="http://www.w3.org/1999/xlink"
 width="294" height="93" viewBox="0 0 294 93">
<path fill-rule="evenodd"  fill="rgb(51, 51, 51)"
 d="M284.798,27.189 L250.995,27.189 L250.995,52.490 L268.097,52.490 L273.697,45.490 C273.697,45.490 280.197,50.390 284.098,53.790 C283.797,54.890 282.797,55.390 281.497,55.390 L250.995,55.390 L250.995,84.792 L276.997,84.792 L282.697,77.592 C282.697,77.592 289.398,82.492 293.298,86.092 C292.998,87.192 292.098,87.692 290.698,87.692 L201.792,87.692 L200.992,84.792 L242.395,84.792 L242.395,55.390 L213.093,55.390 L212.393,52.490 L242.395,52.490 L242.395,27.189 L221.294,27.189 C215.593,36.789 208.893,44.790 201.592,50.590 L200.192,49.690 C208.693,38.789 216.993,21.288 221.494,3.387 L233.694,7.187 C233.294,8.388 232.094,9.288 229.894,9.188 C227.894,14.488 225.494,19.488 222.994,24.189 L242.395,24.189 L242.395,0.087 L254.596,1.387 C254.296,2.787 253.496,3.787 250.995,4.187 L250.995,24.189 L271.697,24.189 L277.297,17.388 C277.297,17.388 283.397,21.888 287.598,25.589 C287.298,26.689 286.198,27.189 284.798,27.189 ZM161.596,79.892 C161.596,81.592 161.896,82.092 165.496,82.092 L174.697,82.092 C178.697,82.092 181.797,81.992 183.097,81.892 C184.398,81.792 184.798,81.492 185.298,80.392 C186.198,78.492 187.498,71.991 188.998,64.991 L190.298,64.991 L190.498,80.992 C192.998,81.992 193.498,82.992 193.498,84.592 C193.498,88.292 190.198,89.693 174.197,89.693 L163.896,89.693 C155.296,89.693 153.396,88.092 153.396,81.892 L153.396,45.590 L139.295,45.590 C137.195,69.891 128.494,84.492 101.192,92.393 L100.592,90.993 C122.594,80.792 128.794,66.891 130.094,45.590 L102.092,45.590 L101.192,42.690 L142.695,42.690 L142.695,22.388 L123.094,22.388 C118.994,29.389 114.093,35.289 108.593,39.589 L107.293,38.689 C113.393,29.889 119.094,16.688 121.694,2.587 L133.394,5.987 C132.994,7.288 131.894,8.088 129.794,8.088 C128.294,12.088 126.594,15.988 124.794,19.488 L142.695,19.488 L142.695,0.287 L154.596,1.487 C154.396,2.887 153.496,3.887 150.995,4.387 L150.995,19.488 L169.197,19.488 L174.597,12.888 C174.597,12.888 180.697,17.388 184.498,20.788 C184.198,21.888 183.197,22.388 181.797,22.388 L150.995,22.388 L150.995,42.690 L176.997,42.690 L182.597,35.589 C182.597,35.589 188.898,40.390 192.698,43.990 C192.398,45.090 191.598,45.590 190.098,45.590 L161.596,45.590 L161.596,46.490 L161.596,79.892 ZM84.298,9.688 L84.298,33.289 C84.198,33.989 80.297,35.689 77.697,35.689 L76.397,35.689 L76.397,31.789 L17.493,31.789 L17.493,34.889 C17.493,35.689 14.093,37.489 10.993,37.489 L9.793,37.489 L9.793,1.687 L18.293,5.387 L75.397,5.387 L79.597,0.887 L88.398,7.688 C87.798,8.488 86.298,9.288 84.298,9.688 ZM32.594,8.288 L17.493,8.288 L17.493,28.889 L32.594,28.889 L32.594,8.288 ZM54.396,8.288 L39.895,8.288 L39.895,28.889 L54.396,28.889 L54.396,8.288 ZM76.397,8.288 L61.696,8.288 L61.696,28.889 L76.397,28.889 L76.397,8.288 ZM36.595,69.191 C35.795,64.091 31.694,57.891 27.894,53.490 C21.394,59.291 13.593,64.491 4.593,68.191 L3.693,66.991 C17.593,58.291 28.594,44.290 33.594,32.889 L46.295,35.989 C45.895,37.189 44.695,37.789 41.795,37.889 C40.595,39.589 39.395,41.190 37.995,42.890 L69.097,42.890 L74.797,37.989 L83.197,46.190 C82.397,47.190 81.197,47.490 78.697,47.590 C65.196,72.391 40.695,87.392 0.892,92.093 L0.292,90.493 C34.194,83.592 58.096,68.991 69.097,45.790 L35.595,45.790 C33.794,47.890 31.794,49.890 29.694,51.890 C49.895,60.491 43.695,74.592 36.595,69.191 Z"/>
</svg>